# xmcd
#
# Track frame offsets: 
#        150
#        18443
#        32531
#        47226
#        61693
#        79125
#        90353
#        101545
#        113044
#        127224
#        141728
#
# Disc length: 2093 seconds
#
# Revision: 0
# Processed by: cddbd v1.5.2PL0 Copyright (c) Steve Scherf et al.
# Submitted via: ExactAudioCopyFreeDBPlugin 1.0
#
DISCID=8f082b0b
DTITLE=The Reverend Peyton's Big Damn Band - Front Porch Sessions
DYEAR=2017
DGENRE=Blues
TTITLE0=We Deserve A Happy Ending
TTITLE1=When My Baby Left Me
TTITLE2=Shakey Shirley
TTITLE3=What You Did To The Boy Ain't Right
TTITLE4=One Bad Shoe
TTITLE5=It's All Night Long
TTITLE6=One More Thing
TTITLE7=Flying Squirrels
TTITLE8=Let Your Light Shine
TTITLE9=When You Lose Your Money
TTITLE10=Cornbread And Butterbeans
EXTD=
EXTT0=
EXTT1=
EXTT2=
EXTT3=
EXTT4=
EXTT5=
EXTT6=
EXTT7=
EXTT8=
EXTT9=
EXTT10=
PLAYORDER=
